# xmcd CD database file
#
# Track frame offsets:
#	150
#	14744
#	26545
#	36493
#	47129
#	66778
#	81749
#	94582
#	107121
#	120604
#
# Disc length: 1770 seconds
#
# Revision: 4
# Processed by: cddbd v1.5.2PL0 Copyright (c) Steve Scherf et al.
# Submitted via: CDex 1.51
#
DISCID=8a06e80a
DTITLE=Hermandad del Rocio de Triana - La Navidad por Triana
DYEAR=2008
DGENRE=Blues
TTITLE0=Eran tres
TTITLE1=En Belen
TTITLE2=Por senderos polvorientos
TTITLE3=Al niño bendito
TTITLE4=Popurri
TTITLE5=Hagan alto las carretas
TTITLE6=Venid pastores venid
TTITLE7=Nana de la seña santana
TTITLE8=Mirando al pesebre
TTITLE9=La Navidad por Triana
EXTD=YEAR: 2008
EXTT0=
EXTT1=
EXTT2=
EXTT3=
EXTT4=
EXTT5=
EXTT6=
EXTT7=
EXTT8=
EXTT9=
PLAYORDER=
